<?xml version="1.0" standalone="no"?>
<!DOCTYPE svg PUBLIC "-//W3C//DTD SVG 20010904//EN"
 "http://www.w3.org/TR/2001/REC-SVG-20010904/DTD/svg10.dtd">
<svg version="1.0" xmlns="http://www.w3.org/2000/svg"
 width="512.000000pt" height="512.000000pt" viewBox="0 0 512.000000 512.000000"
 preserveAspectRatio="xMidYMid meet">
<metadata>
Created by potrace 1.14, written by Peter Selinger 2001-2017
</metadata>
<g transform="translate(0.000000,512.000000) scale(0.100000,-0.100000)"
fill="#000000" stroke="none">
<path d="M235 2688 l0 -1123 450 -2 c494 -2 561 4 728 62 275 95 498 328 601
627 15 43 29 88 32 100 53 254 51 477 -6 703 -41 157 -148 339 -281 475 -155
160 -286 223 -554 266 -22 4 -249 9 -505 11 l-465 5 0 -1124z m880 699 c159
-41 258 -124 333 -279 66 -137 87 -229 87 -393 0 -77 -3 -156 -6 -175 -42
-233 -159 -423 -303 -493 -89 -44 -175 -58 -331 -55 l-140 3 -1 695 c0 382 2
699 4 704 5 8 321 3 357 -7z"/>
<path d="M2425 2685 l0 -1125 222 0 222 0 -1 901 c0 495 2 902 4 904 2 3 145
-462 264 -865 12 -41 61 -203 109 -360 47 -157 100 -330 116 -385 17 -55 37
-121 46 -147 l15 -48 181 0 182 0 43 143 c24 78 61 198 82 267 73 233 252 815
270 875 45 152 161 519 165 524 3 2 5 -404 5 -902 l0 -907 265 0 265 0 0 1125
0 1125 -413 0 -413 0 -18 -62 c-10 -35 -34 -112 -53 -173 -20 -60 -36 -114
-37 -120 -3 -12 -20 -68 -166 -540 -60 -192 -115 -372 -123 -400 l-14 -50 -32
105 c-33 108 -42 138 -111 375 -22 77 -52 178 -66 225 -14 46 -28 91 -29 100
-2 8 -23 78 -45 155 -23 77 -58 195 -77 263 l-36 122 -411 0 -411 0 0 -1125z"/>
</g>
</svg>
